<?xml version="1.0" encoding="UTF-8" standalone="no"?>
<!-- Created with Inkscape (http://www.inkscape.org/) -->

<svg
   xmlns:dc="http://purl.org/dc/elements/1.1/"
   xmlns:cc="http://creativecommons.org/ns#"
   xmlns:rdf="http://www.w3.org/1999/02/22-rdf-syntax-ns#"
   xmlns:svg="http://www.w3.org/2000/svg"
   xmlns="http://www.w3.org/2000/svg"
   xmlns:xlink="http://www.w3.org/1999/xlink"
   xmlns:sodipodi="http://sodipodi.sourceforge.net/DTD/sodipodi-0.dtd"
   xmlns:inkscape="http://www.inkscape.org/namespaces/inkscape"
   width="16"
   height="16"
   viewBox="0 0 4.2333332 4.2333335"
   version="1.1"
   id="svg8"
   inkscape:version="0.92.1 r15371"
   sodipodi:docname="Pe.svg">
  <defs
     id="defs2">
    <linearGradient
       inkscape:collect="always"
       id="linearGradient4538">
      <stop
         offset="0"
         id="stop4534"
         style="stop-color:#ffffff;stop-opacity:1" />
      <stop
         offset="1"
         id="stop4536"
         style="stop-color:#ffffff;stop-opacity:0" />
    </linearGradient>
    <linearGradient
       inkscape:collect="always"
       xlink:href="#linearGradient4538"
       id="linearGradient4542"
       gradientUnits="userSpaceOnUse"
       x1="2.1166666"
       y1="294.88333"
       x2="2.1166666"
       y2="296.73541"
       gradientTransform="matrix(1.1428572,0,0,1.1428549,-0.30238095,-42.125483)" />
  </defs>
  <sodipodi:namedview
     id="base"
     pagecolor="#ffffff"
     bordercolor="#666666"
     borderopacity="1.0"
     inkscape:pageopacity="0.0"
     inkscape:pageshadow="2"
     inkscape:zoom="22.627416"
     inkscape:cx="5.9292028"
     inkscape:cy="10.392937"
     inkscape:document-units="mm"
     inkscape:current-layer="layer1"
     showgrid="true"
     units="px"
     objecttolerance="2"
     guidetolerance="5"
     showguides="false"
     inkscape:pagecheckerboard="true"
     inkscape:window-width="933"
     inkscape:window-height="772"
     inkscape:window-x="516"
     inkscape:window-y="47"
     inkscape:window-maximized="0">
    <inkscape:grid
       type="xygrid"
       id="grid4485" />
  </sodipodi:namedview>
  <metadata
     id="metadata5">
    <rdf:RDF>
      <cc:Work
         rdf:about="">
        <dc:format>image/svg+xml</dc:format>
        <dc:type
           rdf:resource="http://purl.org/dc/dcmitype/StillImage" />
        <dc:title></dc:title>
      </cc:Work>
    </rdf:RDF>
  </metadata>
  <g
     inkscape:label="レイヤー 1"
     inkscape:groupmode="layer"
     id="layer1"
     transform="translate(0,-292.76665)">
    <rect
       style="opacity:1;fill:url(#linearGradient4542);fill-opacity:1;stroke:#141414;stroke-width:0.52916667;stroke-linecap:round;stroke-linejoin:miter;stroke-miterlimit:4;stroke-dasharray:none;stroke-dashoffset:0;stroke-opacity:1;paint-order:normal"
       id="rect4522"
       width="4.2333331"
       height="4.2333093"
       x="-3.3306691e-016"
       y="292.76666" />
    <path
       style="fill:#000000;fill-opacity:1;stroke:none;stroke-width:0.91287088px;stroke-linecap:butt;stroke-linejoin:miter;stroke-opacity:1"
       d="M 2 3 L 2 13 L 4 13 L 4 9 L 6 9 C 6 9 8 9 8 6 C 8 3 6 3 6 3 L 2 3 z M 4 4 L 5 4 C 5 4 6 3.9999874 6 6 C 6 8.0000126 5 8 5 8 L 4 8 L 4 4 z "
       id="path4493"
       transform="matrix(0.26458333,0,0,0.26458333,0,292.76665)" />
    <path
       style="fill:#000000;fill-opacity:1;stroke:none;stroke-width:0.24153042px;stroke-linecap:butt;stroke-linejoin:miter;stroke-opacity:1"
       d="m 2.6458333,294.88332 c 0,0 -0.2645833,0 -0.2645833,0.26458 v 0.79375 c 0,0.26309 0.2645833,0.26458 0.2645833,0.26458 h 1.0583333 v -0.26458 h -0.79375 -0.2645833 v -0.26458 h 0.79375 c 0,0 0.2645833,0 0.2645833,-0.26459 v -0.26458 c 0,-0.26458 -0.2645833,-0.26458 -0.2645833,-0.26458 z m 0,0.26458 h 0.79375 v 0.26458 h -0.79375 z"
       id="path4497"
       inkscape:connector-curvature="0" />
  </g>
</svg>
